<svg xmlns="http://www.w3.org/2000/svg" width="169" height="56">
    <path fill-rule="evenodd" d="M73.162 15.433c.346 0 .639-.156.879-.467.242-.311.363-.701.363-1.172 0-.494-.127-.896-.38-1.203-.253-.307-.566-.461-.936-.461-.346 0-.639.155-.881.465-.24.309-.361.701-.361 1.173 0 .493.127.893.382 1.202.254.308.564.463.934.463zm6.442-.083c.154.032.307.047.461.047.509 0 .885-.158 1.13-.473.245-.317.367-.702.367-1.156 0-.454-.132-.836-.397-1.147-.265-.311-.669-.467-1.213-.467a3.78 3.78 0 0 0-.419.032c.024.474.036.968.036 1.484 0 .564.011 1.125.035 1.68zm11.963-3.238c-.168 0-.345.018-.532.053.026.447.039.953.039 1.518a2.5 2.5 0 0 0 .206.007c.863 0 1.295-.272 1.295-.819 0-.506-.336-.759-1.008-.759zm-4.461-.011h-.057c0 .092-.209.753-.627 1.98h1.291c-.404-1.221-.607-1.88-.607-1.98zm-33.511 0h-.057c0 .092-.209.753-.627 1.98h1.291c-.404-1.221-.607-1.88-.607-1.98zm15.373.72c0-.47-.304-.705-.909-.705-.223 0-.418.017-.588.049.025.367.039.845.039 1.434.13.004.24.006.33.006.752 0 1.128-.26 1.128-.784zm-6.339 2.529c.155.032.309.047.462.047.509 0 .886-.158 1.13-.473.245-.317.367-.702.367-1.156 0-.454-.133-.836-.397-1.147-.265-.311-.669-.467-1.213-.467-.103 0-.241.011-.419.032.024.474.036.968.036 1.484 0 .564.012 1.125.034 1.68zm39.777-3.22c-.346 0-.639.155-.88.465-.241.309-.362.701-.362 1.173 0 .493.126.893.381 1.202.255.308.566.463.935.463.346 0 .639-.156.88-.467.241-.311.362-.701.362-1.172 0-.494-.127-.896-.38-1.203-.254-.307-.565-.461-.936-.461zm-6.871 1.56c.863 0 1.294-.272 1.294-.819 0-.506-.335-.759-1.007-.759-.168 0-.346.018-.532.053.026.447.039.953.039 1.518.059.005.126.007.206.007zm-8.962 15.061c-.994 0-1.854.371-2.579 1.112-.727.742-1.089 1.723-1.089 2.946s.362 2.205 1.089 2.945c.725.742 1.585 1.113 2.579 1.113.993 0 1.852-.371 2.579-1.113.725-.74 1.089-1.722 1.089-2.945 0-1.223-.364-2.204-1.089-2.946-.727-.741-1.586-1.112-2.579-1.112zm-12.265 0c-.994 0-1.853.371-2.579 1.112-.727.742-1.089 1.723-1.089 2.946s.362 2.205 1.089 2.945c.726.742 1.585 1.113 2.579 1.113.993 0 1.853-.371 2.579-1.113.726-.74 1.089-1.722 1.089-2.945 0-1.223-.363-2.204-1.089-2.946-.726-.741-1.586-1.112-2.579-1.112zm58.204-4.722h-3.53v5.732h3.53c.886 0 1.597-.3 2.132-.895.535-.596.803-1.253.803-1.971 0-.718-.268-1.375-.803-1.972-.535-.596-1.246-.894-2.132-.894zm12.791 9.491c-.519.443-.779.962-.779 1.559 0 .549.236.985.711 1.307.472.32 1.015.481 1.627.481.871 0 1.662-.325 2.373-.975.711-.649 1.065-1.417 1.065-2.304-.596-.488-1.489-.733-2.681-.733-1.025 0-1.796.222-2.316.665zm-30.168-4.769c-.779 0-1.455.245-2.028.734-.573.49-.967 1.146-1.181 1.972h6.511c-.046-.643-.341-1.253-.883-1.834-.543-.581-1.35-.872-2.419-.872zm-16.389 0c-.979 0-1.82.371-2.522 1.112-.703.742-1.056 1.723-1.056 2.946s.353 2.205 1.056 2.945c.702.742 1.543 1.113 2.522 1.113.993 0 1.837-.367 2.533-1.1.695-.734 1.043-1.721 1.043-2.958 0-1.238-.348-2.224-1.043-2.957-.696-.734-1.54-1.101-2.533-1.101zM161 0H8C3.877 0 .045 3.718.045 7.841v40.318C.045 52.282 3.877 56 8 56h153c4.123 0 7.954-3.718 7.954-7.841V7.841C168.954 3.718 165.123 0 161 0zM94.375 11.467h.617c.087 0 .254-.004.503-.011.249-.007.463-.011.646-.011.449 0 .829.102 1.139.305.31.204.465.512.465.926 0 .565-.21.983-.63 1.253-.42.269-.935.404-1.545.404-.112 0-.191-.002-.238-.007 0 .444.013 1.031.039 1.759h-.996c.03-.683.045-1.488.045-2.415 0-.852-.015-1.586-.045-2.203zm-8.693 2.348c.552-1.422.828-2.205.828-2.348h1.341c0 .134.25.906.75 2.314.501 1.408.751 2.177.751 2.304h-1.135c0-.156-.108-.598-.323-1.326h-1.64c-.221.716-.334 1.158-.334 1.326h-1.066c0-.092.275-.849.828-2.27zm-7.055-2.348h.621c.103 0 .253-.004.455-.011.201-.007.333-.011.394-.011.854 0 1.473.213 1.857.639.384.426.577.936.577 1.532 0 .672-.216 1.258-.646 1.76-.43.501-1.034.752-1.809.752-.35 0-.833-.015-1.449-.043.032-.714.048-1.52.048-2.415 0-.862-.016-1.596-.048-2.203zm-2.242 0h1.004c-.031.595-.046 1.33-.046 2.203 0 .891.015 1.696.046 2.415h-1.004a59.295 59.295 0 0 0 0-4.618zm-4.851.609a2.165 2.165 0 0 1 1.65-.716c.624 0 1.146.219 1.567.656.421.438.632.996.632 1.674 0 .727-.222 1.328-.667 1.806a2.159 2.159 0 0 1-1.649.717c-.625 0-1.149-.22-1.569-.658-.42-.439-.631-.997-.631-1.672 0-.727.221-1.329.667-1.807zm-9.879-.609h.621c.1 0 .253-.004.454-.011.2-.007.332-.011.392-.011.855 0 1.474.213 1.858.639.385.426.577.936.577 1.532 0 .672-.215 1.258-.646 1.76-.43.501-1.034.752-1.809.752-.351 0-.832-.015-1.447-.043.03-.714.046-1.52.046-2.415 0-.862-.016-1.596-.046-2.203zm-5.046 0h1.053c0 .125.292.625.877 1.5.622.929.979 1.559 1.071 1.89h.052c-.056-.526-.084-1-.084-1.419 0-.64-.017-1.297-.05-1.971h.886c-.032.586-.049 1.32-.049 2.203 0 .888.017 1.694.049 2.415h-.875c0-.097-.326-.608-.976-1.536-.681-.977-1.069-1.645-1.163-2.004h-.057c.059.517.089.986.089 1.405 0 .584.016 1.296.049 2.135h-.872c.035-.733.053-1.538.053-2.415a39 39 0 0 0-.053-2.203zm-4.439 2.348c.553-1.422.828-2.205.828-2.348h1.342c0 .134.25.906.751 2.314.5 1.408.75 2.177.75 2.304h-1.136c0-.156-.107-.598-.322-1.326h-1.639c-.222.716-.333 1.158-.333 1.326h-1.068c0-.092.276-.849.827-2.27zM14.763 12.18c7.18 4.024 14.358 8.049 21.544 12.064.33.185.322.287.068.538a769.219 769.219 0 0 0-4.792 4.768c-.171.171-.275.27-.506.035-5.712-5.825-11.433-11.643-17.152-17.462-.049-.049-.089-.107-.185-.227.428-.003.731.121 1.023.284zm-2.21 35.478c-.601-.462-.831-1.08-.83-1.816.001-3.106-.005-6.211-.007-9.316V29.94h.009c0-5.243.002-10.486-.003-15.728 0-.644.125-1.231.581-1.717.177-.189.304-.239.522-.018 3.527 3.6 7.063 7.191 10.599 10.784C25.713 25.586 28 27.913 30.3 30.23c.223.224.242.343.007.579a6505.076 6505.076 0 0 0-16.844 16.795c-.342.343-.582.307-.91.054zm23.126-11.389c-6.691 3.663-13.376 7.335-20.062 11.005-.11.061-.213.16-.27.197 5.212-5.268 10.427-10.532 15.627-15.812.321-.328.473-.284.762.018a314.731 314.731 0 0 0 4.007 4.082c.237.237.256.335-.064.51zm8.718-4.867c-.313.231-.656.42-.997.609-2.024 1.118-4.051 2.225-6.07 3.351-.272.153-.434.146-.66-.088a430.918 430.918 0 0 0-4.344-4.42c-.212-.213-.218-.33 0-.543a753.47 753.47 0 0 0 5.069-5.045c.198-.201.34-.223.587-.083 1.998 1.132 4.006 2.25 6.009 3.372.62.347 1.102.796 1.129 1.531-.022.591-.301 1.006-.723 1.316zm21.223 4.96c-1.544 1.62-3.554 2.43-6.03 2.43-2.369 0-4.383-.82-6.04-2.464-1.659-1.642-2.487-3.68-2.487-6.109 0-2.43.828-4.467 2.487-6.11 1.657-1.642 3.671-2.464 6.04-2.464 1.177 0 2.3.229 3.37.688 1.07.458 1.926 1.07 2.568 1.834l-1.445 1.444c-1.084-1.299-2.583-1.949-4.493-1.949-1.727 0-3.22.607-4.481 1.823-1.261 1.215-1.892 2.793-1.892 4.734 0 1.941.631 3.518 1.892 4.734 1.261 1.214 2.754 1.822 4.481 1.822 1.834 0 3.363-.611 4.585-1.834.795-.795 1.253-1.903 1.375-3.324h-5.96v-1.972h7.955c.076.429.115.841.115 1.239 0 2.292-.68 4.118-2.04 5.478zm1.893-22.118c0 .607.011 1.222.032 1.841h-.986c.031-.714.046-1.52.046-2.415 0-.862-.015-1.596-.046-2.203h.614c.071 0 .219-.004.445-.011.226-.007.434-.011.626-.011 1.085 0 1.627.371 1.627 1.115 0 .587-.309.998-.928 1.23v.054c.239.065.448.252.628.558.178.306.422.867.727 1.683h-1.051c-.274-.837-.484-1.354-.631-1.55-.146-.196-.383-.295-.709-.295-.137 0-.269.002-.394.004zm10.945 22.84c-1.087 1.14-2.469 1.708-4.15 1.708-1.682 0-3.064-.568-4.149-1.708-1.085-1.138-1.628-2.563-1.628-4.275 0-1.711.543-3.137 1.628-4.275 1.085-1.139 2.467-1.708 4.149-1.708 1.681 0 3.063.569 4.15 1.708 1.084 1.138 1.626 2.564 1.626 4.275 0 1.712-.542 3.137-1.626 4.275zm12.264 0c-1.086 1.14-2.47 1.708-4.149 1.708-1.682 0-3.065-.568-4.15-1.708-1.085-1.138-1.629-2.563-1.629-4.275 0-1.711.544-3.137 1.629-4.275 1.085-1.139 2.468-1.708 4.15-1.708 1.679 0 3.063.569 4.149 1.708 1.085 1.138 1.627 2.564 1.627 4.275 0 1.712-.542 3.137-1.627 4.275zm.593-22.751c-.111 0-.19-.002-.237-.007 0 .444.013 1.031.039 1.759h-.997c.03-.683.046-1.488.046-2.415 0-.852-.016-1.586-.046-2.203h.617c.087 0 .255-.004.504-.011.248-.007.463-.011.645-.011.449 0 .829.102 1.139.305.309.204.465.512.465.926 0 .565-.21.983-.63 1.253-.419.269-.935.404-1.545.404zm13.023 23.519c0 1.926-.557 3.389-1.673 4.391-1.115 1-2.475 1.501-4.079 1.501-1.332 0-2.416-.332-3.257-.997-.84-.665-1.444-1.426-1.81-2.282l1.926-.801c.214.61.607 1.123 1.18 1.535a3.267 3.267 0 0 0 1.961.619c1.161 0 2.074-.347 2.739-1.043.665-.695.997-1.638.997-2.831v-1.077h-.092c-.367.55-.887 1.008-1.56 1.375-.671.367-1.428.55-2.268.55-1.452 0-2.705-.572-3.76-1.719-1.056-1.146-1.582-2.568-1.582-4.264 0-1.696.526-3.118 1.582-4.265 1.055-1.145 2.308-1.718 3.76-1.718.84 0 1.597.184 2.268.549.673.368 1.193.826 1.56 1.376h.092v-1.559h2.016v10.66zm-.304-22.356a2.162 2.162 0 0 1-1.65.717c-.624 0-1.147-.22-1.568-.658-.42-.439-.631-.997-.631-1.672 0-.727.222-1.329.667-1.807a2.164 2.164 0 0 1 1.648-.716c.625 0 1.149.219 1.569.656.421.438.632.996.632 1.674 0 .727-.222 1.328-.667 1.806zm4.408 22.93h-2.109V22.012h2.109v16.414zm1.067-22.341h-.876c0-.097-.325-.608-.975-1.536-.682-.977-1.07-1.645-1.164-2.004h-.057c.059.517.089.986.089 1.405 0 .584.015 1.296.05 2.135h-.873c.035-.733.053-1.538.053-2.415a39 39 0 0 0-.053-2.203h1.053c0 .125.293.625.877 1.5.621.929.979 1.559 1.071 1.89h.052c-.056-.526-.084-1-.084-1.419 0-.64-.016-1.297-.05-1.971h.887c-.033.586-.05 1.32-.05 2.203 0 .888.017 1.694.05 2.415zm11.152 17.114h-8.873c.061 1.131.44 2.026 1.134 2.681.697.658 1.51.987 2.443.987 1.512 0 2.537-.642 3.072-1.926l1.879.78c-.366.871-.971 1.601-1.812 2.189-.839.588-1.871.882-3.093.882-1.698 0-3.077-.565-4.138-1.696-1.062-1.131-1.594-2.56-1.594-4.287 0-1.635.516-3.041 1.548-4.218 1.031-1.176 2.35-1.765 3.954-1.765 1.666 0 2.999.543 4 1.628s1.502 2.537 1.502 4.355l-.022.39zm15.416-2.809c-1.017.925-2.22 1.387-3.611 1.387h-3.484v6.649h-2.11V22.012h5.594c1.391 0 2.594.463 3.611 1.386 1.016.926 1.524 2.091 1.524 3.497 0 1.406-.508 2.572-1.524 3.495zm5.008 8.036h-2.108V22.012h2.108v16.414zm11.233 0H150.3v-1.559h-.091c-.84 1.283-2.071 1.925-3.691 1.925-1.192 0-2.189-.344-2.991-1.031-.803-.688-1.204-1.597-1.204-2.728 0-1.222.472-2.181 1.422-2.877.947-.696 2.116-1.043 3.507-1.043 1.238 0 2.254.229 3.048.688v-.322c0-.825-.282-1.486-.847-1.982-.566-.497-1.261-.746-2.086-.746a3.23 3.23 0 0 0-1.662.436c-.498.29-.837.688-1.021 1.191l-1.926-.824c.26-.673.772-1.295 1.535-1.869.765-.573 1.774-.859 3.028-.859 1.436 0 2.628.421 3.576 1.26.947.842 1.421 2.026 1.421 3.555v6.785zm4.586 4.95h-2.178l2.612-5.662-4.63-10.522H155l3.348 8.071h.046l3.255-8.071h2.292l-7.037 16.184z"/>
</svg>
